<svg version="1.1" id="Layer_1" xmlns="http://www.w3.org/2000/svg" xmlns:xlink="http://www.w3.org/1999/xlink" x="0px" y="0px"
	 width="100%" viewBox="0 0 2560 516" enable-background="new 0 0 2560 516" xml:space="preserve">
<path fill="#000000" opacity="1.000000" stroke="none" 
	d="
M2561.000000,474.000061 
	C2561.000000,488.331055 2561.000000,502.662109 2561.000000,516.996582 
	C1718.969116,517.000000 876.938171,517.000000 34.125778,516.689697 
	C34.154140,515.920715 34.922371,515.355042 35.780792,515.021362 
	C40.422630,513.216919 45.448456,512.085205 49.680992,509.597229 
	C68.608040,498.471466 84.169418,483.558075 98.089554,466.618652 
	C110.379654,451.662781 120.955101,435.661041 129.996918,418.645996 
	C139.281967,401.173248 148.163925,383.482178 156.984894,365.768433 
	C163.395325,352.895386 170.284546,340.162842 175.433472,326.780212 
	C185.759888,299.940735 195.667313,272.903687 204.593399,245.571243 
	C215.429260,212.390991 225.059433,178.817291 235.274033,145.433014 
	C235.774902,143.796021 236.532196,141.954636 237.756012,140.868774 
	C244.360718,135.008652 251.289368,129.511276 257.849304,123.603439 
	C274.586121,108.530396 292.816315,95.618179 313.399353,86.449226 
	C320.495880,83.287987 328.502869,80.363190 336.055939,80.455109 
	C347.579590,80.595337 357.532898,85.859467 365.122498,95.456306 
	C377.745361,111.417557 380.402924,129.442719 377.605469,148.798889 
	C375.889862,160.669632 370.497437,171.125992 364.332062,181.248856 
	C356.021606,194.893646 346.660217,207.935059 334.239990,217.879532 
	C318.625275,230.381714 301.713135,241.250305 285.605347,253.154648 
	C275.523743,260.605377 265.530853,268.256775 256.151855,276.556824 
	C244.814346,286.590118 246.633972,307.059906 257.905182,316.194122 
	C264.869904,321.838348 272.686401,326.638275 280.653259,330.796539 
	C297.969208,339.834442 316.248230,347.211792 331.259247,360.121307 
	C340.206696,367.816132 348.440125,376.443268 352.260651,387.886475 
	C355.770325,398.398651 354.790771,409.408203 352.411316,420.019440 
	C347.791779,440.620850 333.440277,453.827515 316.150635,463.804077 
	C301.111877,472.481812 283.800262,473.231171 266.977081,473.792847 
	C249.262451,474.384277 231.492981,473.333130 213.747467,472.999542 
	C213.247665,472.990143 212.743576,473.018524 212.248749,472.963654 
	C200.386749,471.648071 188.511703,470.436249 176.669189,468.963074 
	C167.964844,467.880341 159.335327,465.997192 150.608307,465.384918 
	C146.631531,465.105957 141.973572,461.294403 138.301743,466.218109 
	C129.109238,478.544922 119.965935,490.908447 110.570251,503.570740 
	C119.360199,508.641724 128.856598,509.261780 138.122726,509.844635 
	C148.763123,510.513977 159.479950,510.126556 170.159836,509.959534 
	C178.586914,509.827728 187.005844,509.234924 195.432816,509.023071 
	C211.643860,508.615448 227.589554,506.357391 243.462540,503.077728 
	C266.596313,498.297791 289.125397,491.727386 310.701935,482.037354 
	C333.550568,471.776062 354.683868,458.979828 370.870453,439.439972 
	C376.381531,432.787262 381.647827,425.623383 385.419373,417.907776 
	C391.617432,405.228271 393.270355,391.212830 393.904175,377.222107 
	C394.155518,371.674469 393.356781,366.076630 392.994720,360.504333 
	C392.332520,350.312897 389.434357,340.799561 383.749756,332.298370 
	C372.055817,314.810333 354.961426,303.795074 336.951141,294.035797 
	C324.909729,287.510925 312.621429,281.442719 300.475220,275.109497 
	C295.928925,272.738983 295.311798,269.658203 299.276581,266.331329 
	C306.500183,260.269897 313.793243,254.205673 321.587830,248.925842 
	C348.280884,230.844696 374.606079,212.440765 396.915131,188.787903 
	C410.694092,174.178925 421.067291,158.155853 425.471039,138.276199 
	C429.209808,121.398575 429.079712,104.766235 422.736633,88.829536 
	C416.499573,73.159157 405.800415,61.011837 388.755707,56.440022 
	C378.246155,53.621101 367.508087,53.402054 356.568756,54.845860 
	C343.472900,56.574295 330.984680,60.058453 319.072632,65.496635 
	C299.959137,74.222496 282.694305,85.907326 266.295654,99.012314 
	C261.017242,103.230537 254.790527,106.262131 248.997650,109.836586 
	C248.371643,109.351753 247.745651,108.866920 247.119644,108.382088 
	C255.368469,74.748070 268.050598,42.269352 275.352692,8.299776 
	C274.211517,8.118073 273.854401,7.946543 273.579285,8.033748 
	C254.689804,14.021222 235.794571,19.991552 216.952179,26.124226 
	C215.741653,26.518213 214.462906,28.017052 214.033569,29.279915 
	C211.549866,36.585590 209.109833,43.918186 207.028290,51.346268 
	C200.683533,73.987679 194.620605,96.708305 188.229843,119.336494 
	C183.807724,134.994171 179.047318,150.556656 174.388351,166.146820 
	C173.068634,170.563034 172.641449,175.770447 169.963211,179.159576 
	C161.339172,190.072678 152.016266,200.452225 142.664108,210.766617 
	C130.024017,224.707291 116.949272,238.255035 104.368248,252.247604 
	C96.950714,260.497345 89.520081,268.855560 83.167473,277.916656 
	C71.186104,295.006348 59.638424,312.425171 48.545578,330.105652 
	C37.218281,348.159851 28.757734,367.692993 20.816626,387.451263 
	C12.915466,407.110229 6.474172,427.165924 2.870288,448.085815 
	C2.801340,448.486053 1.647609,448.699432 1.000002,449.000000 
	C1.000000,299.695007 1.000000,150.390015 1.000000,1.000000 
	C566.697571,1.000000 1132.395142,1.000000 1698.881836,1.338451 
	C1698.838867,2.116106 1698.053345,2.770800 1697.167603,2.962282 
	C1683.121460,5.998881 1668.869995,8.284126 1655.051025,12.127310 
	C1633.720947,18.059431 1613.350220,26.567343 1593.970703,37.452591 
	C1571.659790,49.984409 1550.661743,64.087227 1535.445801,85.166115 
	C1527.576538,96.067390 1522.018799,108.018387 1521.972900,121.945358 
	C1521.917236,138.830643 1528.793457,153.721008 1535.374023,168.637344 
	C1540.069092,179.279678 1545.497803,189.597549 1550.558716,200.079773 
	C1552.305054,203.696915 1552.882690,206.946487 1547.614014,208.086578 
	C1546.704468,208.283386 1545.934937,209.058105 1545.052856,209.460663 
	C1520.990723,220.440628 1496.978271,231.613449 1474.839600,246.157669 
	C1458.749756,256.728058 1442.912231,267.825958 1427.927368,279.887695 
	C1416.582275,289.019714 1406.363525,299.674225 1396.406006,310.361633 
	C1390.156128,317.069733 1384.532593,324.646515 1380.005127,332.615845 
	C1369.963989,350.289978 1363.031860,369.096832 1360.822144,389.615601 
	C1359.270752,404.021729 1359.517700,418.191681 1363.576172,432.000519 
	C1371.958862,460.523071 1390.596924,480.763123 1416.838379,493.778870 
	C1426.842163,498.740692 1437.960693,501.449371 1448.557861,505.221985 
	C1462.946045,510.344086 1478.029907,512.284241 1493.046875,512.785156 
	C1524.070190,513.819946 1555.105225,513.225830 1585.864624,508.031799 
	C1597.081055,506.137817 1608.446533,505.020569 1619.570679,502.713348 
	C1632.944458,499.939545 1646.221436,496.588531 1659.375122,492.898926 
	C1670.487671,489.781891 1681.415039,485.967468 1692.303345,482.119385 
	C1694.478882,481.350555 1697.347900,479.306061 1697.767578,477.384644 
	C1699.325928,470.251526 1700.060791,462.932434 1700.981934,455.667603 
	C1702.265015,445.546967 1703.437622,435.412323 1704.725586,424.718353 
	C1688.937866,431.752075 1673.417969,438.636841 1657.924072,445.579498 
	C1647.319702,450.331238 1636.989624,455.806732 1626.119507,459.831726 
	C1600.154297,469.446045 1574.055054,478.734528 1547.774170,487.442780 
	C1537.262451,490.925812 1526.240356,493.565674 1515.253052,494.736847 
	C1501.783325,496.172638 1488.104492,495.965576 1474.520264,495.870270 
	C1468.038940,495.824799 1461.365479,495.139740 1455.131226,493.447327 
	C1440.121704,489.372711 1427.274780,481.500061 1416.470825,470.083893 
	C1404.364746,457.291870 1399.042358,441.906769 1399.256958,424.827759 
	C1399.358643,416.734833 1401.476440,408.450348 1403.929810,400.645264 
	C1410.798950,378.791504 1424.458008,361.055206 1439.942261,344.689697 
	C1447.210205,337.008423 1454.939453,329.717712 1462.891235,322.741913 
	C1471.583130,315.116791 1480.570068,307.787262 1489.835571,300.874512 
	C1494.271362,297.565063 1499.727051,295.654297 1504.577759,292.861816 
	C1512.090454,288.536926 1519.326904,283.712860 1526.955811,279.612701 
	C1542.020874,271.516083 1557.347412,263.905731 1572.410889,255.806046 
	C1577.669434,252.978439 1582.634644,249.520157 1587.426880,245.938904 
	C1590.851196,243.379807 1593.095825,239.359726 1591.796875,235.211670 
	C1590.191406,230.084839 1587.617920,225.175522 1584.900269,220.498947 
	C1577.528076,207.812195 1569.108521,195.669144 1562.624268,182.558716 
	C1559.379883,175.998993 1557.961914,167.718369 1558.359619,160.358810 
	C1559.023438,148.077362 1564.032349,136.791489 1569.922119,125.844872 
	C1578.193237,110.473022 1588.932617,97.010963 1601.036743,84.770821 
	C1611.746948,73.940147 1623.280151,63.777508 1635.317017,54.437412 
	C1655.158325,39.041386 1676.583862,26.028860 1700.644775,18.207960 
	C1716.552246,13.037301 1732.670654,9.586507 1749.192017,16.877514 
	C1759.385498,21.376024 1767.014526,31.330894 1765.910767,41.414909 
	C1764.499023,54.311153 1760.874512,66.777122 1755.657471,78.586632 
	C1746.005981,100.434052 1735.722412,122.001984 1725.744751,143.705963 
	C1724.586304,146.225571 1723.696777,148.868790 1722.471313,151.993500 
	C1724.394165,151.993500 1725.403076,152.135681 1726.359497,151.971848 
	C1737.868042,150.000336 1749.410156,148.187439 1760.849854,145.870728 
	C1764.986572,145.032959 1769.686890,145.004395 1771.519043,139.199295 
	C1775.480957,126.645264 1781.002319,114.540611 1784.354980,101.847778 
	C1788.583496,85.839233 1794.093506,69.867989 1792.017212,52.786961 
	C1790.292358,38.597572 1784.109863,26.679758 1773.740112,16.995243 
	C1764.806030,8.651673 1753.909912,4.489756 1741.898438,2.920624 
	C1741.193970,2.828595 1740.629639,1.664955 1740.000000,0.999998 
	C2013.579956,1.000000 2287.159912,1.000000 2561.000000,1.000000 
	C2561.000000,156.030823 2561.000000,311.061768 2560.549805,466.546600 
	C2553.760254,465.880524 2549.244141,468.440552 2545.087646,473.238983 
	C2537.836914,481.609894 2528.805908,487.700378 2518.240479,491.283417 
	C2512.393799,493.266205 2508.232422,490.714813 2509.214844,484.664276 
	C2510.727783,475.345825 2512.958252,466.005249 2516.152832,457.130707 
	C2521.050537,443.524200 2527.256104,430.394501 2532.476562,416.896149 
	C2537.037598,405.102539 2541.354004,393.206573 2541.055664,380.181763 
	C2540.790771,368.610443 2533.588623,358.311279 2522.425781,355.029297 
	C2508.241211,350.858978 2493.814697,351.335815 2481.197998,358.747589 
	C2469.383789,365.687897 2458.287109,374.312469 2448.225586,383.651245 
	C2436.901855,394.161591 2427.065186,406.257843 2418.745605,419.466614 
	C2416.692627,422.726318 2413.526855,425.285065 2410.872559,428.166046 
	C2410.368652,427.866943 2409.864746,427.567810 2409.360840,427.268707 
	C2410.209473,423.331604 2410.686035,419.268341 2411.970703,415.479065 
	C2417.860352,398.109192 2424.110352,380.861420 2429.982178,363.485718 
	C2442.087402,327.663391 2453.969482,291.765717 2466.068115,255.941086 
	C2474.614990,230.633560 2483.536133,205.451645 2491.986084,180.112320 
	C2505.005859,141.068283 2517.813965,101.953201 2530.566162,62.820774 
	C2531.940918,58.602543 2532.350586,54.069912 2533.140625,50.027935 
	C2529.514648,50.027935 2527.157715,49.553226 2525.071533,50.103447 
	C2509.195312,54.290192 2493.340088,58.568764 2477.574463,63.148655 
	C2475.742432,63.680798 2473.693604,65.976944 2473.097656,67.879120 
	C2462.271973,102.425430 2451.514160,136.994431 2441.035400,171.647400 
	C2432.094971,201.214813 2423.584473,230.912140 2414.773438,260.519073 
	C2408.484375,281.650330 2402.010742,302.726532 2395.622803,323.828369 
	C2385.918701,355.885986 2376.207275,387.941376 2366.519531,420.003845 
	C2360.193604,440.940826 2353.741211,461.841949 2347.684082,482.856628 
	C2345.461914,490.566071 2344.213135,498.556091 2342.396484,506.993378 
	C2356.577881,506.993378 2369.875244,507.051270 2383.169678,506.880737 
	C2384.203857,506.867462 2385.592285,505.455353 2386.181396,504.353943 
	C2391.207031,494.954529 2395.901611,485.374817 2401.054932,476.047821 
	C2407.451172,464.471069 2413.769775,452.814392 2420.897705,441.689026 
	C2428.302002,430.132385 2435.908936,418.556335 2444.756836,408.115173 
	C2453.935303,397.283783 2464.531982,387.615784 2474.918457,377.875885 
	C2477.204346,375.732025 2481.216309,375.428925 2485.378906,373.940002 
	C2486.048828,378.841888 2487.130859,382.370941 2486.856201,385.790985 
	C2486.458252,390.743073 2485.500488,395.746521 2484.032471,400.496582 
	C2480.760254,411.087616 2477.316162,421.645264 2473.413086,432.017334 
	C2466.375244,450.718048 2460.583252,469.595215 2461.996582,489.933380 
	C2462.402344,495.772858 2463.413086,501.723969 2468.717529,504.926392 
	C2482.456299,513.220581 2497.339844,514.064636 2512.307129,509.151062 
	C2530.295166,503.245789 2544.216553,491.367798 2556.408203,477.233917 
	C2557.594238,475.858826 2559.453369,475.064209 2561.000000,474.000061 
M590.953735,394.229828 
	C589.270386,402.059296 582.398071,405.739136 577.399475,410.822845 
	C570.126221,418.220001 562.385376,425.157379 554.787903,432.343719 
	C563.502380,438.196930 571.420654,439.004669 579.033020,430.619537 
	C578.610718,438.276215 577.873840,444.933075 576.983582,451.569336 
	C575.771545,460.603577 573.978821,469.588959 573.331177,478.659332 
	C572.919617,484.422607 572.483643,491.172668 574.993347,495.933044 
	C579.147522,503.812836 586.022339,510.089386 594.995972,513.001770 
	C603.936462,515.903381 612.994751,515.429810 622.081360,513.490723 
	C635.636536,510.598114 648.286499,505.321503 659.874329,497.922333 
	C668.128235,492.651947 675.609375,486.171265 683.861023,479.907593 
	C682.237671,478.530518 681.559082,478.032227 680.970581,477.443756 
	C674.954529,471.427826 675.126099,471.674927 667.840088,476.532990 
	C657.138428,483.668488 646.871460,491.648010 634.223938,495.359009 
	C629.298828,496.804108 625.738159,495.346680 622.963257,491.037506 
	C619.393494,485.493866 619.945129,479.437866 621.249512,473.706085 
	C624.111145,461.130768 627.503601,448.666718 630.996155,436.246338 
	C639.233765,406.951019 647.760315,377.736664 655.930481,348.422821 
	C657.926147,341.262604 661.409302,335.467255 666.897644,330.425751 
	C672.611572,325.177063 677.937683,319.434662 682.928894,313.484955 
	C695.177002,298.884857 707.450806,284.286530 719.134949,269.237701 
	C736.239685,247.207199 751.219666,223.684555 763.831421,198.844162 
	C773.297668,180.199097 781.598328,160.923279 789.648376,141.607574 
	C800.746643,114.977707 806.825562,87.136177 806.940308,58.183811 
	C806.980225,48.095665 806.079346,38.004967 806.072632,27.915127 
	C806.066162,18.123461 801.848816,10.466030 793.469666,6.439688 
	C785.290039,2.509233 776.567322,4.383845 768.649963,8.880492 
	C756.768127,15.628773 747.698181,25.579214 739.577393,36.158703 
	C722.515076,58.386826 708.955017,82.909996 696.160950,107.717079 
	C685.291199,128.793121 675.369751,150.443817 666.441711,172.414429 
	C654.889221,200.843262 644.543213,229.770874 634.063904,258.624023 
	C628.131287,274.958771 622.760925,291.507538 617.511414,308.078400 
	C608.518433,336.466095 599.818970,364.946747 590.953735,394.229828 
M789.504517,293.996918 
	C782.734192,314.478546 775.763855,334.897003 769.265503,355.464600 
	C765.100342,368.647522 761.685608,382.066284 757.797241,395.339142 
	C757.145813,397.562592 756.284912,400.100433 754.686707,401.610138 
	C743.787659,411.906189 732.665527,421.966034 721.921814,431.820953 
	C730.903503,437.282288 739.272339,438.755981 747.107361,428.966583 
	C746.296997,436.583832 745.784790,442.698486 744.966553,448.771912 
	C743.859497,456.989502 742.314941,465.151642 741.347778,473.383331 
	C740.702637,478.873871 739.962891,484.539764 740.632446,489.958282 
	C741.911560,500.310608 750.508301,505.300079 758.114624,510.444733 
	C766.618103,516.196289 776.799805,514.890930 785.991638,513.653870 
	C801.144165,511.614594 815.042664,505.099426 828.002258,496.960815 
	C836.110779,491.868652 844.117798,486.553467 849.540344,479.732574 
	C846.765320,476.539520 844.297668,473.700134 841.940918,470.988373 
	C838.718994,473.359039 835.890259,475.860474 832.687988,477.718079 
	C822.966492,483.357513 813.314026,489.189606 803.212158,494.072693 
	C796.970642,497.089752 793.274841,494.716522 789.909302,489.077820 
	C786.269409,482.979492 787.821472,476.656921 789.245483,470.927887 
	C795.345581,446.385651 802.101685,422.004181 808.796631,397.612976 
	C812.750427,383.208344 816.816101,368.825958 821.272583,354.571503 
	C823.316589,348.033508 825.263062,340.937042 829.307678,335.671448 
	C836.035217,326.912964 844.670044,319.649628 852.040222,311.347046 
	C861.502808,300.687347 871.047668,290.025757 879.577515,278.631744 
	C890.532043,263.999115 900.754028,248.797516 910.859680,233.554672 
	C927.574646,208.342606 941.482910,181.527039 952.676575,153.500229 
	C962.974548,127.715805 972.743347,101.458290 973.812500,73.269341 
	C974.458801,56.228378 973.918091,39.082115 972.809998,22.054794 
	C971.988342,9.427503 957.804016,1.434412 945.640808,4.660640 
	C930.121704,8.777014 919.862183,20.038149 910.550842,31.359728 
	C893.383972,52.232925 880.228577,75.958611 867.731750,99.885437 
	C858.690735,117.195564 849.817871,134.669968 842.233826,152.646454 
	C831.100952,179.034637 820.865601,205.817184 810.857178,232.658920 
	C803.388306,252.689606 796.882996,273.079590 789.504517,293.996918 
M1898.936646,454.235016 
	C1898.667847,454.654968 1898.216064,455.050934 1898.157593,455.498383 
	C1897.078247,463.745667 1895.735840,471.975464 1895.104126,480.258881 
	C1894.624878,486.542694 1893.868774,493.270477 1898.985962,498.336670 
	C1902.812256,502.124817 1906.762207,505.935425 1911.203003,508.925293 
	C1921.472046,515.838867 1932.897949,514.541687 1944.207153,512.339722 
	C1957.672363,509.718048 1970.174194,504.427765 1981.590576,496.950592 
	C1989.956421,491.471466 1997.746948,485.113739 2005.856812,479.100922 
	C1996.572510,468.084015 1997.624512,469.840881 1989.743530,475.502625 
	C1979.542603,482.831085 1969.410278,490.503479 1956.994385,494.056793 
	C1951.854004,495.528015 1948.359375,494.372955 1945.442993,490.034576 
	C1941.830688,484.660736 1942.407104,478.703796 1943.598877,472.992859 
	C1945.735352,462.754608 1948.337524,452.603912 1951.040649,442.495697 
	C1955.866821,424.449188 1960.841797,406.441589 1965.890015,388.455719 
	C1969.541626,375.445160 1973.241455,362.442749 1977.270752,349.546265 
	C1978.830811,344.552673 1980.161743,338.637085 1983.643433,335.236847 
	C2001.835083,317.470367 2018.462280,298.352264 2034.009644,278.324829 
	C2052.959229,253.914764 2069.964111,228.132614 2084.528320,200.857239 
	C2098.814697,174.102295 2110.824707,146.342560 2120.011719,117.368515 
	C2125.973389,98.567505 2128.498535,79.292366 2128.896240,59.725945 
	C2129.131348,48.151234 2128.192383,36.557415 2128.036377,24.968756 
	C2127.851074,11.188768 2113.996094,-0.438324 2098.605469,4.600843 
	C2084.363281,9.263950 2074.506104,19.467865 2065.705566,30.148647 
	C2049.128906,50.267208 2036.150024,72.963753 2024.098511,96.054680 
	C2014.827271,113.818123 2006.075928,131.867279 1997.594116,150.023285 
	C1991.757568,162.517059 1986.362793,175.254745 1981.501587,188.158813 
	C1971.401978,214.968796 1961.443115,241.842377 1952.073486,268.913757 
	C1942.965210,295.229980 1934.563965,321.793549 1926.052734,348.312866 
	C1921.574829,362.265228 1917.522583,376.354248 1913.285645,390.383881 
	C1912.311035,393.610992 1912.187500,397.510864 1910.227905,399.932281 
	C1906.860229,404.093658 1902.299072,407.274323 1898.342041,410.976746 
	C1891.167603,417.689484 1884.068848,424.483185 1876.604614,431.559540 
	C1881.621338,433.544403 1885.799316,435.197388 1890.046387,436.877716 
	C1893.483521,434.695770 1897.025269,432.447296 1901.578003,429.557129 
	C1900.621216,438.356873 1899.807495,445.841766 1898.936646,454.235016 
M1089.077393,511.959717 
	C1107.354370,507.294922 1124.415039,499.788269 1140.566772,490.096741 
	C1148.220703,485.504181 1154.742188,479.761536 1160.031616,472.478485 
	C1156.679932,470.940277 1153.683838,469.300507 1150.496826,468.227325 
	C1149.140137,467.770508 1146.984497,467.956299 1145.873535,468.774994 
	C1137.239014,475.137299 1129.276489,482.590668 1120.085449,487.959381 
	C1113.197266,491.982971 1104.849609,495.279297 1097.050903,495.511475 
	C1087.904663,495.783752 1079.794800,490.616364 1074.657349,482.139374 
	C1071.946167,477.666016 1071.979248,475.364685 1076.326904,473.020203 
	C1087.781616,466.843323 1099.318237,460.802399 1110.988770,455.045013 
	C1131.147583,445.100128 1150.831543,434.588684 1165.617432,416.929291 
	C1175.145508,405.549530 1180.145752,392.754639 1176.736816,378.004974 
	C1175.558716,372.907928 1172.658936,367.475464 1168.934814,363.851959 
	C1161.045044,356.175598 1150.440430,354.407440 1139.906616,355.158203 
	C1125.630249,356.175751 1112.090576,360.600647 1099.291748,366.989502 
	C1082.400879,375.421082 1067.147705,386.001007 1054.242676,400.059143 
	C1044.211182,410.987030 1035.949341,422.831177 1030.768188,436.708618 
	C1026.000854,449.477692 1023.925049,462.647980 1027.585938,476.031311 
	C1032.431885,493.746429 1044.877808,504.156830 1061.707275,510.021912 
	C1070.364868,513.039062 1079.220215,513.221985 1089.077393,511.959717 
M2236.583496,512.006653 
	C2237.750000,512.011719 2239.048584,512.359680 2240.062744,511.969177 
	C2251.140869,507.704163 2262.843994,504.513855 2273.093018,498.748108 
	C2302.186279,482.380768 2315.719238,450.635223 2305.268311,417.332245 
	C2300.734619,402.885986 2292.188965,391.076843 2284.162354,378.825256 
	C2279.628418,371.904968 2281.046631,367.362091 2287.237549,362.955994 
	C2300.527588,353.497040 2304.042725,347.047760 2300.876465,331.107849 
	C2300.578125,329.606628 2298.572754,327.353027 2297.310303,327.319458 
	C2291.087402,327.153900 2284.787598,327.165405 2278.630371,327.983124 
	C2271.784912,328.892242 2267.219727,333.644897 2263.391846,339.093079 
	C2258.883301,345.510132 2254.964844,352.063202 2254.858887,360.350494 
	C2254.828857,362.687653 2253.669189,365.553131 2252.052002,367.242401 
	C2237.590576,382.348938 2222.936523,397.271912 2208.283447,412.194031 
	C2201.790283,418.806427 2195.168457,425.292542 2189.328125,431.115143 
	C2192.515625,434.816223 2195.291504,438.039093 2198.040771,441.231293 
	C2216.872803,423.882935 2235.379883,406.834106 2254.630371,389.100403 
	C2256.271240,392.305786 2258.285156,394.829468 2258.863037,397.647675 
	C2260.263916,404.478577 2261.775146,411.439117 2261.841797,418.360901 
	C2261.998291,434.602997 2261.531738,450.860168 2260.937744,467.097382 
	C2260.500732,479.040222 2253.703125,487.875427 2245.069336,495.181244 
	C2241.141113,498.505280 2235.779053,500.781616 2230.673340,497.746826 
	C2224.466309,494.057220 2218.748779,489.540070 2212.849609,485.338501 
	C2206.916260,481.112549 2201.388916,476.136627 2195.009521,472.764679 
	C2187.818604,468.963684 2178.142090,470.213989 2174.178955,476.436676 
	C2166.743164,488.111725 2171.159912,501.794250 2184.297607,505.881927 
	C2193.517334,508.750610 2202.930664,511.476593 2212.459229,512.723206 
	C2220.039795,513.714966 2227.925781,512.371277 2236.583496,512.006653 
M1806.268677,480.964325 
	C1804.320190,481.675568 1802.359741,482.355560 1800.425415,483.103577 
	C1793.069702,485.948364 1790.404785,484.694733 1787.988647,477.046509 
	C1787.460327,475.373871 1787.134277,473.589600 1787.031616,471.838226 
	C1786.560303,463.793182 1789.971069,456.843048 1792.703735,449.495209 
	C1802.206909,423.941132 1811.072144,398.146820 1819.937988,372.360626 
	C1822.372559,365.279449 1823.961670,357.907593 1826.046997,350.273468 
	C1808.123047,352.746887 1791.679077,355.016083 1775.456543,357.254730 
	C1773.920898,361.152954 1772.228149,364.803741 1771.024658,368.609222 
	C1762.435791,395.765717 1753.546997,422.837524 1745.597168,450.181488 
	C1741.717529,463.525116 1738.242920,477.164978 1740.910034,491.497040 
	C1742.853271,501.938721 1752.680908,510.751251 1763.285156,511.052002 
	C1773.855835,511.351776 1783.718262,508.312408 1792.647583,503.474335 
	C1805.522217,496.498688 1817.713745,488.252411 1830.108276,480.408447 
	C1833.012817,478.570251 1835.562622,476.171631 1838.258911,474.043976 
	C1835.097412,471.924011 1832.512207,469.937653 1829.677979,468.414642 
	C1828.546387,467.806641 1826.497803,467.636017 1825.494263,468.265961 
	C1819.207520,472.212097 1813.098145,476.440582 1806.268677,480.964325 
M954.998169,418.489685 
	C960.875366,400.929535 966.852905,383.401855 972.558716,365.786163 
	C973.966003,361.441345 974.488831,356.809967 975.572571,351.563080 
	C972.430237,352.214508 970.555786,352.728668 968.646851,352.978577 
	C955.551025,354.692902 942.434753,356.258881 929.359436,358.114716 
	C927.010315,358.448120 924.819519,359.261444 923.860779,362.505554 
	C920.988953,372.222839 917.343445,381.708160 914.285889,391.374481 
	C907.879700,411.627014 901.249756,431.823059 895.503540,452.264893 
	C891.786926,465.486420 888.288818,478.890686 890.919678,493.034241 
	C893.485657,506.828949 906.857910,514.151855 917.497559,512.841614 
	C929.236572,511.395905 940.546753,507.384918 950.650146,501.478973 
	C963.632019,493.890350 975.733276,484.795380 988.885742,475.894714 
	C985.886169,474.024689 983.218628,472.794800 981.103271,470.936432 
	C978.281738,468.457642 976.185242,469.415222 973.447144,471.095581 
	C965.366089,476.054962 957.254944,481.016205 948.833618,485.351288 
	C943.911133,487.885315 939.193481,485.796509 938.358826,480.244385 
	C937.416260,473.974457 936.890320,466.944977 938.781921,461.084534 
	C943.361267,446.896759 949.450317,433.196259 954.998169,418.489685 
M447.197266,511.999512 
	C455.298096,509.371765 463.556091,507.143860 471.467102,504.033356 
	C488.108002,497.490448 500.951385,484.872498 516.538269,475.469879 
	C513.675293,473.573761 511.155701,472.093781 508.852905,470.330688 
	C506.166718,468.273926 504.309296,468.775665 501.439697,470.676544 
	C493.946106,475.640320 486.122528,480.176117 478.122162,484.281708 
	C472.110077,487.366913 465.824493,484.031372 465.294312,477.071899 
	C464.845703,471.182861 465.247803,464.771271 467.150757,459.236359 
	C478.024780,427.608551 489.513611,396.192596 500.636322,364.649200 
	C502.002106,360.775940 502.429657,356.571838 503.463593,351.714783 
	C497.896606,352.268890 493.188080,352.583221 488.526245,353.232574 
	C477.735596,354.735596 466.952484,356.310669 456.207397,358.102814 
	C454.697662,358.354645 452.627930,359.710388 452.159729,361.031006 
	C448.770844,370.589935 445.613068,380.235657 442.595642,389.920441 
	C433.839722,418.023407 422.615814,445.474945 418.781464,474.895996 
	C417.857422,481.986145 418.022614,489.887604 420.237762,496.570435 
	C424.174164,508.445984 434.123901,512.685364 447.197266,511.999512 
M2113.008545,479.504822 
	C2109.420654,481.321960 2105.857910,483.190552 2102.238037,484.941620 
	C2098.682129,486.661865 2096.123047,484.860931 2094.060059,482.208893 
	C2090.092285,477.107971 2089.864502,470.951263 2091.530029,465.370880 
	C2094.593262,455.106995 2098.902344,445.222382 2102.406006,435.080902 
	C2110.398193,411.946991 2118.278809,388.773804 2126.055420,365.566620 
	C2127.600098,360.957214 2128.478760,356.124725 2129.827393,350.746490 
	C2121.599365,351.978516 2114.862305,353.077148 2108.098877,353.977264 
	C2099.689941,355.096436 2091.221436,355.832092 2082.866699,357.250763 
	C2081.052002,357.558899 2078.831299,359.764435 2078.129150,361.604218 
	C2074.862061,370.165161 2071.887695,378.849457 2069.130127,387.591095 
	C2062.453613,408.756256 2055.481689,429.846527 2049.562256,451.225555 
	C2045.944946,464.290558 2042.279419,477.561646 2044.925171,491.569183 
	C2047.583496,505.642548 2059.449707,513.346741 2071.085938,511.531067 
	C2082.793945,509.704224 2094.604492,505.424133 2105.120605,499.858521 
	C2118.143066,492.966309 2129.879883,483.644409 2142.821045,474.935455 
	C2139.991211,473.081635 2137.573975,471.797852 2135.519775,470.080231 
	C2132.671875,467.698792 2130.302490,468.051636 2127.413330,470.120209 
	C2122.962158,473.307220 2118.225098,476.094360 2113.008545,479.504822 
M2130.054932,301.978455 
	C2131.720215,301.985657 2133.388184,301.934448 2135.050293,302.008820 
	C2158.121338,303.040863 2168.103027,279.085388 2160.981689,261.339417 
	C2155.323730,247.239883 2133.086182,237.687378 2118.067383,249.151169 
	C2107.473389,257.237579 2102.940186,273.895477 2108.460938,285.083344 
	C2112.856201,293.990814 2120.158447,298.847137 2130.054932,301.978455 
M495.530243,299.074890 
	C500.805817,300.380493 506.179626,303.081848 511.337799,302.718903 
	C524.562378,301.788361 533.225464,293.014587 536.328064,279.762299 
	C541.259583,258.698242 521.666748,242.878372 504.231201,244.805298 
	C488.557770,246.537460 475.811554,264.886078 480.889740,281.942139 
	C483.188293,289.662262 488.432068,294.692749 495.530243,299.074890 
M1005.754822,259.110931 
	C1002.313965,256.058258 999.192017,252.511871 995.372925,250.044525 
	C983.444946,242.338257 974.087585,243.182373 962.090515,251.402618 
	C954.245850,256.777740 950.138916,272.246643 952.902039,282.016846 
	C956.273560,293.938477 964.875366,300.501373 976.046631,302.696472 
	C987.946594,305.034760 999.320312,301.524353 1005.833740,288.481567 
	C1010.580139,278.977112 1009.997559,269.404907 1005.754822,259.110931 
M1858.967896,277.991791 
	C1859.706665,268.188080 1858.637451,259.011780 1850.547852,252.025513 
	C1844.190308,246.534958 1836.742920,242.740631 1828.541382,243.250122 
	C1817.653564,243.926514 1809.761108,250.018875 1804.888794,260.169647 
	C1800.096558,270.153473 1800.942871,282.764618 1808.279663,290.664642 
	C1817.519165,300.613556 1827.553711,303.099365 1839.755859,300.015839 
	C1850.653076,297.262085 1856.247192,289.363220 1858.967896,277.991791 
z"/>
<path fill="#E4D3B9" opacity="1.000000" stroke="none" 
	d="
M1.000002,449.468658 
	C1.647609,448.699432 2.801340,448.486053 2.870288,448.085815 
	C6.474172,427.165924 12.915466,407.110229 20.816626,387.451263 
	C28.757734,367.692993 37.218281,348.159851 48.545578,330.105652 
	C59.638424,312.425171 71.186104,295.006348 83.167473,277.916656 
	C89.520081,268.855560 96.950714,260.497345 104.368248,252.247604 
	C116.949272,238.255035 130.024017,224.707291 142.664108,210.766617 
	C152.016266,200.452225 161.339172,190.072678 169.963211,179.159576 
	C172.641449,175.770447 173.068634,170.563034 174.388351,166.146820 
	C179.047318,150.556656 183.807724,134.994171 188.229843,119.336494 
	C194.620605,96.708305 200.683533,73.987679 207.028290,51.346268 
	C209.109833,43.918186 211.549866,36.585590 214.033569,29.279915 
	C214.462906,28.017052 215.741653,26.518213 216.952179,26.124226 
	C235.794571,19.991552 254.689804,14.021222 273.579285,8.033748 
	C273.854401,7.946543 274.211517,8.118073 275.352692,8.299776 
	C268.050598,42.269352 255.368469,74.748070 247.119644,108.382088 
	C247.745651,108.866920 248.371643,109.351753 248.997650,109.836586 
	C254.790527,106.262131 261.017242,103.230537 266.295654,99.012314 
	C282.694305,85.907326 299.959137,74.222496 319.072632,65.496635 
	C330.984680,60.058453 343.472900,56.574295 356.568756,54.845860 
	C367.508087,53.402054 378.246155,53.621101 388.755707,56.440022 
	C405.800415,61.011837 416.499573,73.159157 422.736633,88.829536 
	C429.079712,104.766235 429.209808,121.398575 425.471039,138.276199 
	C421.067291,158.155853 410.694092,174.178925 396.915131,188.787903 
	C374.606079,212.440765 348.280884,230.844696 321.587830,248.925842 
	C313.793243,254.205673 306.500183,260.269897 299.276581,266.331329 
	C295.311798,269.658203 295.928925,272.738983 300.475220,275.109497 
	C312.621429,281.442719 324.909729,287.510925 336.951141,294.035797 
	C354.961426,303.795074 372.055817,314.810333 383.749756,332.298370 
	C389.434357,340.799561 392.332520,350.312897 392.994720,360.504333 
	C393.356781,366.076630 394.155518,371.674469 393.904175,377.222107 
	C393.270355,391.212830 391.617432,405.228271 385.419373,417.907776 
	C381.647827,425.623383 376.381531,432.787262 370.870453,439.439972 
	C354.683868,458.979828 333.550568,471.776062 310.701935,482.037354 
	C289.125397,491.727386 266.596313,498.297791 243.462540,503.077728 
	C227.589554,506.357391 211.643860,508.615448 195.432816,509.023071 
	C187.005844,509.234924 178.586914,509.827728 170.159836,509.959534 
	C159.479950,510.126556 148.763123,510.513977 138.122726,509.844635 
	C128.856598,509.261780 119.360199,508.641724 110.570251,503.570740 
	C119.965935,490.908447 129.109238,478.544922 138.301743,466.218109 
	C141.973572,461.294403 146.631531,465.105957 150.608307,465.384918 
	C159.335327,465.997192 167.964844,467.880341 176.669189,468.963074 
	C188.511703,470.436249 200.386749,471.648071 212.248749,472.963654 
	C212.743576,473.018524 213.247665,472.990143 213.747467,472.999542 
	C231.492981,473.333130 249.262451,474.384277 266.977081,473.792847 
	C283.800262,473.231171 301.111877,472.481812 316.150635,463.804077 
	C333.440277,453.827515 347.791779,440.620850 352.411316,420.019440 
	C354.790771,409.408203 355.770325,398.398651 352.260651,387.886475 
	C348.440125,376.443268 340.206696,367.816132 331.259247,360.121307 
	C316.248230,347.211792 297.969208,339.834442 280.653259,330.796539 
	C272.686401,326.638275 264.869904,321.838348 257.905182,316.194122 
	C246.633972,307.059906 244.814346,286.590118 256.151855,276.556824 
	C265.530853,268.256775 275.523743,260.605377 285.605347,253.154648 
	C301.713135,241.250305 318.625275,230.381714 334.239990,217.879532 
	C346.660217,207.935059 356.021606,194.893646 364.332062,181.248856 
	C370.497437,171.125992 375.889862,160.669632 377.605469,148.798889 
	C380.402924,129.442719 377.745361,111.417557 365.122498,95.456306 
	C357.532898,85.859467 347.579590,80.595337 336.055939,80.455109 
	C328.502869,80.363190 320.495880,83.287987 313.399353,86.449226 
	C292.816315,95.618179 274.586121,108.530396 257.849304,123.603439 
	C251.289368,129.511276 244.360718,135.008652 237.756012,140.868774 
	C236.532196,141.954636 235.774902,143.796021 235.274033,145.433014 
	C225.059433,178.817291 215.429260,212.390991 204.593399,245.571243 
	C195.667313,272.903687 185.759888,299.940735 175.433472,326.780212 
	C170.284546,340.162842 163.395325,352.895386 156.984894,365.768433 
	C148.163925,383.482178 139.281967,401.173248 129.996918,418.645996 
	C120.955101,435.661041 110.379654,451.662781 98.089554,466.618652 
	C84.169418,483.558075 68.608040,498.471466 49.680992,509.597229 
	C45.448456,512.085205 40.422630,513.216919 35.780792,515.021362 
	C34.922371,515.355042 34.154140,515.920715 33.672146,516.689697 
	C28.977907,517.000000 23.955816,517.000000 18.793503,516.729126 
	C10.168719,512.552917 5.240262,505.688202 2.407499,497.042969 
	C2.357780,496.891205 1.487436,497.008331 1.000000,497.000000 
	C1.000000,481.312439 1.000000,465.624878 1.000002,449.468658 
M70.516106,327.987305 
	C67.007118,334.355682 63.070908,340.529816 60.069771,347.129150 
	C51.292877,366.429016 42.356228,385.685211 34.480202,405.358093 
	C25.640602,427.437744 19.016880,450.179993 19.968494,474.424774 
	C20.118345,478.242584 20.924866,482.235199 24.473124,483.455658 
	C26.590153,484.183838 30.434113,482.720459 32.264145,480.957520 
	C39.660007,473.832825 46.935722,466.516510 53.594177,458.706879 
	C68.254303,441.512085 79.642319,422.037445 89.796280,402.026001 
	C101.833229,378.303619 112.860512,354.041656 123.584175,329.687164 
	C136.437637,300.495758 146.920975,270.384613 155.582855,239.684082 
	C158.082230,230.825439 159.438751,221.644348 161.319229,212.611099 
	C160.772766,212.258392 160.226288,211.905701 159.679825,211.552994 
	C149.317902,222.005768 138.419571,231.989212 128.746414,243.044632 
	C119.257294,253.889694 110.425888,265.428284 102.367455,277.378387 
	C91.369713,293.687286 81.377327,310.674133 70.516106,327.987305 
z"/>
<path fill="#E4D3B9" opacity="1.000000" stroke="none" 
	d="
M1739.531372,0.999998 
	C1740.629639,1.664955 1741.193970,2.828595 1741.898438,2.920624 
	C1753.909912,4.489756 1764.806030,8.651673 1773.740112,16.995243 
	C1784.109863,26.679758 1790.292358,38.597572 1792.017212,52.786961 
	C1794.093506,69.867989 1788.583496,85.839233 1784.354980,101.847778 
	C1781.002319,114.540611 1775.480957,126.645264 1771.519043,139.199295 
	C1769.686890,145.004395 1764.986572,145.032959 1760.849854,145.870728 
	C1749.410156,148.187439 1737.868042,150.000336 1726.359497,151.971848 
	C1725.403076,152.135681 1724.394165,151.993500 1722.471313,151.993500 
	C1723.696777,148.868790 1724.586304,146.225571 1725.744751,143.705963 
	C1735.722412,122.001984 1746.005981,100.434052 1755.657471,78.586632 
	C1760.874512,66.777122 1764.499023,54.311153 1765.910767,41.414909 
	C1767.014526,31.330894 1759.385498,21.376024 1749.192017,16.877514 
	C1732.670654,9.586507 1716.552246,13.037301 1700.644775,18.207960 
	C1676.583862,26.028860 1655.158325,39.041386 1635.317017,54.437412 
	C1623.280151,63.777508 1611.746948,73.940147 1601.036743,84.770821 
	C1588.932617,97.010963 1578.193237,110.473022 1569.922119,125.844872 
	C1564.032349,136.791489 1559.023438,148.077362 1558.359619,160.358810 
	C1557.961914,167.718369 1559.379883,175.998993 1562.624268,182.558716 
	C1569.108521,195.669144 1577.528076,207.812195 1584.900269,220.498947 
	C1587.617920,225.175522 1590.191406,230.084839 1591.796875,235.211670 
	C1593.095825,239.359726 1590.851196,243.379807 1587.426880,245.938904 
	C1582.634644,249.520157 1577.669434,252.978439 1572.410889,255.806046 
	C1557.347412,263.905731 1542.020874,271.516083 1526.955811,279.612701 
	C1519.326904,283.712860 1512.090454,288.536926 1504.577759,292.861816 
	C1499.727051,295.654297 1494.271362,297.565063 1489.835571,300.874512 
	C1480.570068,307.787262 1471.583130,315.116791 1462.891235,322.741913 
	C1454.939453,329.717712 1447.210205,337.008423 1439.942261,344.689697 
	C1424.458008,361.055206 1410.798950,378.791504 1403.929810,400.645264 
	C1401.476440,408.450348 1399.358643,416.734833 1399.256958,424.827759 
	C1399.042358,441.906769 1404.364746,457.291870 1416.470825,470.083893 
	C1427.274780,481.500061 1440.121704,489.372711 1455.131226,493.447327 
	C1461.365479,495.139740 1468.038940,495.824799 1474.520264,495.870270 
	C1488.104492,495.965576 1501.783325,496.172638 1515.253052,494.736847 
	C1526.240356,493.565674 1537.262451,490.925812 1547.774170,487.442780 
	C1574.055054,478.734528 1600.154297,469.446045 1626.119507,459.831726 
	C1636.989624,455.806732 1647.319702,450.331238 1657.924072,445.579498 
	C1673.417969,438.636841 1688.937866,431.752075 1704.725586,424.718353 
	C1703.437622,435.412323 1702.265015,445.546967 1700.981934,455.667603 
	C1700.060791,462.932434 1699.325928,470.251526 1697.767578,477.384644 
	C1697.347900,479.306061 1694.478882,481.350555 1692.303345,482.119385 
	C1681.415039,485.967468 1670.487671,489.781891 1659.375122,492.898926 
	C1646.221436,496.588531 1632.944458,499.939545 1619.570679,502.713348 
	C1608.446533,505.020569 1597.081055,506.137817 1585.864624,508.031799 
	C1555.105225,513.225830 1524.070190,513.819946 1493.046875,512.785156 
	C1478.029907,512.284241 1462.946045,510.344086 1448.557861,505.221985 
	C1437.960693,501.449371 1426.842163,498.740692 1416.838379,493.778870 
	C1390.596924,480.763123 1371.958862,460.523071 1363.576172,432.000519 
	C1359.517700,418.191681 1359.270752,404.021729 1360.822144,389.615601 
	C1363.031860,369.096832 1369.963989,350.289978 1380.005127,332.615845 
	C1384.532593,324.646515 1390.156128,317.069733 1396.406006,310.361633 
	C1406.363525,299.674225 1416.582275,289.019714 1427.927368,279.887695 
	C1442.912231,267.825958 1458.749756,256.728058 1474.839600,246.157669 
	C1496.978271,231.613449 1520.990723,220.440628 1545.052856,209.460663 
	C1545.934937,209.058105 1546.704468,208.283386 1547.614014,208.086578 
	C1552.882690,206.946487 1552.305054,203.696915 1550.558716,200.079773 
	C1545.497803,189.597549 1540.069092,179.279678 1535.374023,168.637344 
	C1528.793457,153.721008 1521.917236,138.830643 1521.972900,121.945358 
	C1522.018799,108.018387 1527.576538,96.067390 1535.445801,85.166115 
	C1550.661743,64.087227 1571.659790,49.984409 1593.970703,37.452591 
	C1613.350220,26.567343 1633.720947,18.059431 1655.051025,12.127310 
	C1668.869995,8.284126 1683.121460,5.998881 1697.167603,2.962282 
	C1698.053345,2.770800 1698.838867,2.116106 1699.335449,1.338451 
	C1712.354248,1.000000 1725.708496,1.000000 1739.531372,0.999998 
z"/>
<path fill="#E4D3B9" opacity="1.000000" stroke="none" 
	d="
M2561.000000,473.562561 
	C2559.453369,475.064209 2557.594238,475.858826 2556.408203,477.233917 
	C2544.216553,491.367798 2530.295166,503.245789 2512.307129,509.151062 
	C2497.339844,514.064636 2482.456299,513.220581 2468.717529,504.926392 
	C2463.413086,501.723969 2462.402344,495.772858 2461.996582,489.933380 
	C2460.583252,469.595215 2466.375244,450.718048 2473.413086,432.017334 
	C2477.316162,421.645264 2480.760254,411.087616 2484.032471,400.496582 
	C2485.500488,395.746521 2486.458252,390.743073 2486.856201,385.790985 
	C2487.130859,382.370941 2486.048828,378.841888 2485.378906,373.940002 
	C2481.216309,375.428925 2477.204346,375.732025 2474.918457,377.875885 
	C2464.531982,387.615784 2453.935303,397.283783 2444.756836,408.115173 
	C2435.908936,418.556335 2428.302002,430.132385 2420.897705,441.689026 
	C2413.769775,452.814392 2407.451172,464.471069 2401.054932,476.047821 
	C2395.901611,485.374817 2391.207031,494.954529 2386.181396,504.353943 
	C2385.592285,505.455353 2384.203857,506.867462 2383.169678,506.880737 
	C2369.875244,507.051270 2356.577881,506.993378 2342.396484,506.993378 
	C2344.213135,498.556091 2345.461914,490.566071 2347.684082,482.856628 
	C2353.741211,461.841949 2360.193604,440.940826 2366.519531,420.003845 
	C2376.207275,387.941376 2385.918701,355.885986 2395.622803,323.828369 
	C2402.010742,302.726532 2408.484375,281.650330 2414.773438,260.519073 
	C2423.584473,230.912140 2432.094971,201.214813 2441.035400,171.647400 
	C2451.514160,136.994431 2462.271973,102.425430 2473.097656,67.879120 
	C2473.693604,65.976944 2475.742432,63.680798 2477.574463,63.148655 
	C2493.340088,58.568764 2509.195312,54.290192 2525.071533,50.103447 
	C2527.157715,49.553226 2529.514648,50.027935 2533.140625,50.027935 
	C2532.350586,54.069912 2531.940918,58.602543 2530.566162,62.820774 
	C2517.813965,101.953201 2505.005859,141.068283 2491.986084,180.112320 
	C2483.536133,205.451645 2474.614990,230.633560 2466.068115,255.941086 
	C2453.969482,291.765717 2442.087402,327.663391 2429.982178,363.485718 
	C2424.110352,380.861420 2417.860352,398.109192 2411.970703,415.479065 
	C2410.686035,419.268341 2410.209473,423.331604 2409.360840,427.268707 
	C2409.864746,427.567810 2410.368652,427.866943 2410.872559,428.166046 
	C2413.526855,425.285065 2416.692627,422.726318 2418.745605,419.466614 
	C2427.065186,406.257843 2436.901855,394.161591 2448.225586,383.651245 
	C2458.287109,374.312469 2469.383789,365.687897 2481.197998,358.747589 
	C2493.814697,351.335815 2508.241211,350.858978 2522.425781,355.029297 
	C2533.588623,358.311279 2540.790771,368.610443 2541.055664,380.181763 
	C2541.354004,393.206573 2537.037598,405.102539 2532.476562,416.896149 
	C2527.256104,430.394501 2521.050537,443.524200 2516.152832,457.130707 
	C2512.958252,466.005249 2510.727783,475.345825 2509.214844,484.664276 
	C2508.232422,490.714813 2512.393799,493.266205 2518.240479,491.283417 
	C2528.805908,487.700378 2537.836914,481.609894 2545.087646,473.238983 
	C2549.244141,468.440552 2553.760254,465.880524 2560.549805,467.000244 
	C2561.000000,469.041656 2561.000000,471.083344 2561.000000,473.562561 
z"/>
<path fill="#000000" opacity="1.000000" stroke="none" 
	d="
M1.000000,497.469055 
	C1.487436,497.008331 2.357780,496.891205 2.407499,497.042969 
	C5.240262,505.688202 10.168719,512.552917 18.326641,516.729126 
	C12.401345,517.000000 6.802691,517.000000 1.000000,517.000000 
	C1.000000,510.647064 1.000000,504.292572 1.000000,497.469055 
z"/>
<path fill="#E4D3B9" opacity="1.000000" stroke="none" 
	d="
M590.974976,393.809082 
	C599.818970,364.946747 608.518433,336.466095 617.511414,308.078400 
	C622.760925,291.507538 628.131287,274.958771 634.063904,258.624023 
	C644.543213,229.770874 654.889221,200.843262 666.441711,172.414429 
	C675.369751,150.443817 685.291199,128.793121 696.160950,107.717079 
	C708.955017,82.909996 722.515076,58.386826 739.577393,36.158703 
	C747.698181,25.579214 756.768127,15.628773 768.649963,8.880492 
	C776.567322,4.383845 785.290039,2.509233 793.469666,6.439688 
	C801.848816,10.466030 806.066162,18.123461 806.072632,27.915127 
	C806.079346,38.004967 806.980225,48.095665 806.940308,58.183811 
	C806.825562,87.136177 800.746643,114.977707 789.648376,141.607574 
	C781.598328,160.923279 773.297668,180.199097 763.831421,198.844162 
	C751.219666,223.684555 736.239685,247.207199 719.134949,269.237701 
	C707.450806,284.286530 695.177002,298.884857 682.928894,313.484955 
	C677.937683,319.434662 672.611572,325.177063 666.897644,330.425751 
	C661.409302,335.467255 657.926147,341.262604 655.930481,348.422821 
	C647.760315,377.736664 639.233765,406.951019 630.996155,436.246338 
	C627.503601,448.666718 624.111145,461.130768 621.249512,473.706085 
	C619.945129,479.437866 619.393494,485.493866 622.963257,491.037506 
	C625.738159,495.346680 629.298828,496.804108 634.223938,495.359009 
	C646.871460,491.648010 657.138428,483.668488 667.840088,476.532990 
	C675.126099,471.674927 674.954529,471.427826 680.970581,477.443756 
	C681.559082,478.032227 682.237671,478.530518 683.861023,479.907593 
	C675.609375,486.171265 668.128235,492.651947 659.874329,497.922333 
	C648.286499,505.321503 635.636536,510.598114 622.081360,513.490723 
	C612.994751,515.429810 603.936462,515.903381 594.995972,513.001770 
	C586.022339,510.089386 579.147522,503.812836 574.993347,495.933044 
	C572.483643,491.172668 572.919617,484.422607 573.331177,478.659332 
	C573.978821,469.588959 575.771545,460.603577 576.983582,451.569336 
	C577.873840,444.933075 578.610718,438.276215 579.033020,430.619537 
	C571.420654,439.004669 563.502380,438.196930 554.787903,432.343719 
	C562.385376,425.157379 570.126221,418.220001 577.399475,410.822845 
	C582.398071,405.739136 589.270386,402.059296 590.974976,393.809082 
M677.874817,299.640137 
	C686.373230,288.763031 694.895996,277.904816 703.364929,267.004822 
	C720.859802,244.487930 735.638733,220.188934 748.389893,194.794632 
	C758.415833,174.827698 767.359741,154.248367 775.557922,133.457504 
	C780.845154,120.049164 784.329956,105.870407 787.837952,91.840767 
	C790.262268,82.144997 791.976624,72.170395 792.864685,62.218365 
	C793.892639,50.698544 793.843994,39.067490 793.884338,27.483412 
	C793.897461,23.725327 790.303833,21.662893 787.322754,23.328003 
	C785.222107,24.501364 783.005676,26.016640 781.692688,27.955927 
	C775.990540,36.378311 769.804688,44.612743 765.267517,53.654552 
	C756.454468,71.217155 747.873169,88.973053 740.578125,107.202034 
	C730.066956,133.467178 720.578247,160.150406 711.046326,186.795837 
	C702.598328,210.411224 694.525391,234.164764 686.599609,257.961456 
	C681.905273,272.056061 677.817444,286.352692 673.117310,301.664886 
	C675.453430,300.694458 676.324768,300.332520 677.874817,299.640137 
z"/>
<path fill="#E4D3B9" opacity="1.000000" stroke="none" 
	d="
M789.726562,293.653259 
	C796.882996,273.079590 803.388306,252.689606 810.857178,232.658920 
	C820.865601,205.817184 831.100952,179.034637 842.233826,152.646454 
	C849.817871,134.669968 858.690735,117.195564 867.731750,99.885437 
	C880.228577,75.958611 893.383972,52.232925 910.550842,31.359728 
	C919.862183,20.038149 930.121704,8.777014 945.640808,4.660640 
	C957.804016,1.434412 971.988342,9.427503 972.809998,22.054794 
	C973.918091,39.082115 974.458801,56.228378 973.812500,73.269341 
	C972.743347,101.458290 962.974548,127.715805 952.676575,153.500229 
	C941.482910,181.527039 927.574646,208.342606 910.859680,233.554672 
	C900.754028,248.797516 890.532043,263.999115 879.577515,278.631744 
	C871.047668,290.025757 861.502808,300.687347 852.040222,311.347046 
	C844.670044,319.649628 836.035217,326.912964 829.307678,335.671448 
	C825.263062,340.937042 823.316589,348.033508 821.272583,354.571503 
	C816.816101,368.825958 812.750427,383.208344 808.796631,397.612976 
	C802.101685,422.004181 795.345581,446.385651 789.245483,470.927887 
	C787.821472,476.656921 786.269409,482.979492 789.909302,489.077820 
	C793.274841,494.716522 796.970642,497.089752 803.212158,494.072693 
	C813.314026,489.189606 822.966492,483.357513 832.687988,477.718079 
	C835.890259,475.860474 838.718994,473.359039 841.940918,470.988373 
	C844.297668,473.700134 846.765320,476.539520 849.540344,479.732574 
	C844.117798,486.553467 836.110779,491.868652 828.002258,496.960815 
	C815.042664,505.099426 801.144165,511.614594 785.991638,513.653870 
	C776.799805,514.890930 766.618103,516.196289 758.114624,510.444733 
	C750.508301,505.300079 741.911560,500.310608 740.632446,489.958282 
	C739.962891,484.539764 740.702637,478.873871 741.347778,473.383331 
	C742.314941,465.151642 743.859497,456.989502 744.966553,448.771912 
	C745.784790,442.698486 746.296997,436.583832 747.107361,428.966583 
	C739.272339,438.755981 730.903503,437.282288 721.921814,431.820953 
	C732.665527,421.966034 743.787659,411.906189 754.686707,401.610138 
	C756.284912,400.100433 757.145813,397.562592 757.797241,395.339142 
	C761.685608,382.066284 765.100342,368.647522 769.265503,355.464600 
	C775.763855,334.897003 782.734192,314.478546 789.726562,293.653259 
M887.521484,243.973923 
	C904.289124,218.262894 918.991760,191.451111 931.357117,163.325439 
	C940.766602,141.922928 949.052551,120.134148 954.916443,97.512688 
	C960.795471,74.832840 964.209045,51.800381 961.915833,28.267460 
	C961.712280,26.178505 960.814941,23.169226 959.346191,22.473152 
	C957.916870,21.795794 954.799988,22.977081 953.372559,24.337523 
	C949.950256,27.598869 946.585693,31.129995 944.079163,35.107586 
	C931.565369,54.964928 921.236023,75.954201 912.748657,97.832970 
	C902.116516,125.240616 891.310913,152.586060 881.115234,180.156235 
	C873.364075,201.116409 866.246948,222.318802 859.221130,243.537094 
	C853.073730,262.102234 847.446838,280.839722 841.590027,299.501099 
	C842.075256,299.797974 842.560425,300.094849 843.045654,300.391754 
	C844.390686,299.405273 845.898438,298.579590 847.056091,297.408051 
	C862.722656,281.553558 874.423096,262.696655 887.521484,243.973923 
z"/>
<path fill="#E4D3B9" opacity="1.000000" stroke="none" 
	d="
M1898.965210,453.780823 
	C1899.807495,445.841766 1900.621216,438.356873 1901.578003,429.557129 
	C1897.025269,432.447296 1893.483521,434.695770 1890.046387,436.877716 
	C1885.799316,435.197388 1881.621338,433.544403 1876.604614,431.559540 
	C1884.068848,424.483185 1891.167603,417.689484 1898.342041,410.976746 
	C1902.299072,407.274323 1906.860229,404.093658 1910.227905,399.932281 
	C1912.187500,397.510864 1912.311035,393.610992 1913.285645,390.383881 
	C1917.522583,376.354248 1921.574829,362.265228 1926.052734,348.312866 
	C1934.563965,321.793549 1942.965210,295.229980 1952.073486,268.913757 
	C1961.443115,241.842377 1971.401978,214.968796 1981.501587,188.158813 
	C1986.362793,175.254745 1991.757568,162.517059 1997.594116,150.023285 
	C2006.075928,131.867279 2014.827271,113.818123 2024.098511,96.054680 
	C2036.150024,72.963753 2049.128906,50.267208 2065.705566,30.148647 
	C2074.506104,19.467865 2084.363281,9.263950 2098.605469,4.600843 
	C2113.996094,-0.438324 2127.851074,11.188768 2128.036377,24.968756 
	C2128.192383,36.557415 2129.131348,48.151234 2128.896240,59.725945 
	C2128.498535,79.292366 2125.973389,98.567505 2120.011719,117.368515 
	C2110.824707,146.342560 2098.814697,174.102295 2084.528320,200.857239 
	C2069.964111,228.132614 2052.959229,253.914764 2034.009644,278.324829 
	C2018.462280,298.352264 2001.835083,317.470367 1983.643433,335.236847 
	C1980.161743,338.637085 1978.830811,344.552673 1977.270752,349.546265 
	C1973.241455,362.442749 1969.541626,375.445160 1965.890015,388.455719 
	C1960.841797,406.441589 1955.866821,424.449188 1951.040649,442.495697 
	C1948.337524,452.603912 1945.735352,462.754608 1943.598877,472.992859 
	C1942.407104,478.703796 1941.830688,484.660736 1945.442993,490.034576 
	C1948.359375,494.372955 1951.854004,495.528015 1956.994385,494.056793 
	C1969.410278,490.503479 1979.542603,482.831085 1989.743530,475.502625 
	C1997.624512,469.840881 1996.572510,468.084015 2005.856812,479.100922 
	C1997.746948,485.113739 1989.956421,491.471466 1981.590576,496.950592 
	C1970.174194,504.427765 1957.672363,509.718048 1944.207153,512.339722 
	C1932.897949,514.541687 1921.472046,515.838867 1911.203003,508.925293 
	C1906.762207,505.935425 1902.812256,502.124817 1898.985962,498.336670 
	C1893.868774,493.270477 1894.624878,486.542694 1895.104126,480.258881 
	C1895.735840,471.975464 1897.078247,463.745667 1898.157593,455.498383 
	C1898.216064,455.050934 1898.667847,454.654968 1898.965210,453.780823 
M2000.942749,281.367767 
	C1999.306396,287.383698 1997.670044,293.399628 1996.033691,299.415558 
	C1996.784790,299.795837 1997.535767,300.176086 1998.286743,300.556366 
	C2003.819946,293.912659 2009.927124,287.660889 2014.779785,280.552673 
	C2030.164185,258.017303 2045.970459,235.691177 2059.892334,212.261322 
	C2070.804688,193.896240 2079.926025,174.345657 2088.473145,154.724991 
	C2101.317383,125.239883 2112.096680,95.007004 2115.071289,62.565079 
	C2116.179443,50.480953 2118.185547,38.450775 2115.930908,26.326130 
	C2115.597656,24.533728 2114.754395,22.083399 2113.422119,21.441725 
	C2112.095947,20.802792 2109.419922,21.523405 2108.110352,22.594702 
	C2105.457764,24.764795 2103.007324,27.349157 2101.035645,30.157434 
	C2087.982422,48.748528 2078.203369,69.096733 2069.645020,90.040176 
	C2060.946777,111.325401 2052.116211,132.573456 2044.136963,154.131378 
	C2034.433472,180.348129 2025.434082,206.828888 2016.373657,233.278915 
	C2011.005737,248.949692 2006.108276,264.781586 2000.942749,281.367767 
z"/>
<path fill="#E4D3B9" opacity="1.000000" stroke="none" 
	d="
M1088.632324,511.977753 
	C1079.220215,513.221985 1070.364868,513.039062 1061.707275,510.021912 
	C1044.877808,504.156830 1032.431885,493.746429 1027.585938,476.031311 
	C1023.925049,462.647980 1026.000854,449.477692 1030.768188,436.708618 
	C1035.949341,422.831177 1044.211182,410.987030 1054.242676,400.059143 
	C1067.147705,386.001007 1082.400879,375.421082 1099.291748,366.989502 
	C1112.090576,360.600647 1125.630249,356.175751 1139.906616,355.158203 
	C1150.440430,354.407440 1161.045044,356.175598 1168.934814,363.851959 
	C1172.658936,367.475464 1175.558716,372.907928 1176.736816,378.004974 
	C1180.145752,392.754639 1175.145508,405.549530 1165.617432,416.929291 
	C1150.831543,434.588684 1131.147583,445.100128 1110.988770,455.045013 
	C1099.318237,460.802399 1087.781616,466.843323 1076.326904,473.020203 
	C1071.979248,475.364685 1071.946167,477.666016 1074.657349,482.139374 
	C1079.794800,490.616364 1087.904663,495.783752 1097.050903,495.511475 
	C1104.849609,495.279297 1113.197266,491.982971 1120.085449,487.959381 
	C1129.276489,482.590668 1137.239014,475.137299 1145.873535,468.774994 
	C1146.984497,467.956299 1149.140137,467.770508 1150.496826,468.227325 
	C1153.683838,469.300507 1156.679932,470.940277 1160.031616,472.478485 
	C1154.742188,479.761536 1148.220703,485.504181 1140.566772,490.096741 
	C1124.415039,499.788269 1107.354370,507.294922 1088.632324,511.977753 
M1134.337769,367.003662 
	C1132.628784,367.445374 1130.714844,367.533264 1129.243408,368.385284 
	C1118.367676,374.683014 1109.535400,383.133423 1102.091919,393.314453 
	C1089.736328,410.214386 1079.759644,428.275330 1073.376831,448.245636 
	C1072.917114,449.683563 1073.124634,451.334686 1072.994385,453.303833 
	C1074.819946,452.939117 1076.008667,452.902100 1077.026978,452.466553 
	C1085.132446,448.999603 1093.530273,446.047760 1101.223511,441.819000 
	C1119.209839,431.932190 1134.668457,418.965118 1145.893921,401.520325 
	C1150.108276,394.971100 1152.637573,387.931885 1150.057129,379.891113 
	C1147.678223,372.479034 1141.207031,370.054077 1134.337769,367.003662 
z"/>
<path fill="#E4D3B9" opacity="1.000000" stroke="none" 
	d="
M2236.129883,512.035522 
	C2227.925781,512.371277 2220.039795,513.714966 2212.459229,512.723206 
	C2202.930664,511.476593 2193.517334,508.750610 2184.297607,505.881927 
	C2171.159912,501.794250 2166.743164,488.111725 2174.178955,476.436676 
	C2178.142090,470.213989 2187.818604,468.963684 2195.009521,472.764679 
	C2201.388916,476.136627 2206.916260,481.112549 2212.849609,485.338501 
	C2218.748779,489.540070 2224.466309,494.057220 2230.673340,497.746826 
	C2235.779053,500.781616 2241.141113,498.505280 2245.069336,495.181244 
	C2253.703125,487.875427 2260.500732,479.040222 2260.937744,467.097382 
	C2261.531738,450.860168 2261.998291,434.602997 2261.841797,418.360901 
	C2261.775146,411.439117 2260.263916,404.478577 2258.863037,397.647675 
	C2258.285156,394.829468 2256.271240,392.305786 2254.630371,389.100403 
	C2235.379883,406.834106 2216.872803,423.882935 2198.040771,441.231293 
	C2195.291504,438.039093 2192.515625,434.816223 2189.328125,431.115143 
	C2195.168457,425.292542 2201.790283,418.806427 2208.283447,412.194031 
	C2222.936523,397.271912 2237.590576,382.348938 2252.052002,367.242401 
	C2253.669189,365.553131 2254.828857,362.687653 2254.858887,360.350494 
	C2254.964844,352.063202 2258.883301,345.510132 2263.391846,339.093079 
	C2267.219727,333.644897 2271.784912,328.892242 2278.630371,327.983124 
	C2284.787598,327.165405 2291.087402,327.153900 2297.310303,327.319458 
	C2298.572754,327.353027 2300.578125,329.606628 2300.876465,331.107849 
	C2304.042725,347.047760 2300.527588,353.497040 2287.237549,362.955994 
	C2281.046631,367.362091 2279.628418,371.904968 2284.162354,378.825256 
	C2292.188965,391.076843 2300.734619,402.885986 2305.268311,417.332245 
	C2315.719238,450.635223 2302.186279,482.380768 2273.093018,498.748108 
	C2262.843994,504.513855 2251.140869,507.704163 2240.062744,511.969177 
	C2239.048584,512.359680 2237.750000,512.011719 2236.129883,512.035522 
z"/>
<path fill="#E4D3B9" opacity="1.000000" stroke="none" 
	d="
M1806.599365,480.769958 
	C1813.098145,476.440582 1819.207520,472.212097 1825.494263,468.265961 
	C1826.497803,467.636017 1828.546387,467.806641 1829.677979,468.414642 
	C1832.512207,469.937653 1835.097412,471.924011 1838.258911,474.043976 
	C1835.562622,476.171631 1833.012817,478.570251 1830.108276,480.408447 
	C1817.713745,488.252411 1805.522217,496.498688 1792.647583,503.474335 
	C1783.718262,508.312408 1773.855835,511.351776 1763.285156,511.052002 
	C1752.680908,510.751251 1742.853271,501.938721 1740.910034,491.497040 
	C1738.242920,477.164978 1741.717529,463.525116 1745.597168,450.181488 
	C1753.546997,422.837524 1762.435791,395.765717 1771.024658,368.609222 
	C1772.228149,364.803741 1773.920898,361.152954 1775.456543,357.254730 
	C1791.679077,355.016083 1808.123047,352.746887 1826.046997,350.273468 
	C1823.961670,357.907593 1822.372559,365.279449 1819.937988,372.360626 
	C1811.072144,398.146820 1802.206909,423.941132 1792.703735,449.495209 
	C1789.971069,456.843048 1786.560303,463.793182 1787.031616,471.838226 
	C1787.134277,473.589600 1787.460327,475.373871 1787.988647,477.046509 
	C1790.404785,484.694733 1793.069702,485.948364 1800.425415,483.103577 
	C1802.359741,482.355560 1804.320190,481.675568 1806.599365,480.769958 
z"/>
<path fill="#E4D3B9" opacity="1.000000" stroke="none" 
	d="
M954.964600,418.894531 
	C949.450317,433.196259 943.361267,446.896759 938.781921,461.084534 
	C936.890320,466.944977 937.416260,473.974457 938.358826,480.244385 
	C939.193481,485.796509 943.911133,487.885315 948.833618,485.351288 
	C957.254944,481.016205 965.366089,476.054962 973.447144,471.095581 
	C976.185242,469.415222 978.281738,468.457642 981.103271,470.936432 
	C983.218628,472.794800 985.886169,474.024689 988.885742,475.894714 
	C975.733276,484.795380 963.632019,493.890350 950.650146,501.478973 
	C940.546753,507.384918 929.236572,511.395905 917.497559,512.841614 
	C906.857910,514.151855 893.485657,506.828949 890.919678,493.034241 
	C888.288818,478.890686 891.786926,465.486420 895.503540,452.264893 
	C901.249756,431.823059 907.879700,411.627014 914.285889,391.374481 
	C917.343445,381.708160 920.988953,372.222839 923.860779,362.505554 
	C924.819519,359.261444 927.010315,358.448120 929.359436,358.114716 
	C942.434753,356.258881 955.551025,354.692902 968.646851,352.978577 
	C970.555786,352.728668 972.430237,352.214508 975.572571,351.563080 
	C974.488831,356.809967 973.966003,361.441345 972.558716,365.786163 
	C966.852905,383.401855 960.875366,400.929535 954.964600,418.894531 
z"/>
<path fill="#E4D3B9" opacity="1.000000" stroke="none" 
	d="
M446.737762,511.999695 
	C434.123901,512.685364 424.174164,508.445984 420.237762,496.570435 
	C418.022614,489.887604 417.857422,481.986145 418.781464,474.895996 
	C422.615814,445.474945 433.839722,418.023407 442.595642,389.920441 
	C445.613068,380.235657 448.770844,370.589935 452.159729,361.031006 
	C452.627930,359.710388 454.697662,358.354645 456.207397,358.102814 
	C466.952484,356.310669 477.735596,354.735596 488.526245,353.232574 
	C493.188080,352.583221 497.896606,352.268890 503.463593,351.714783 
	C502.429657,356.571838 502.002106,360.775940 500.636322,364.649200 
	C489.513611,396.192596 478.024780,427.608551 467.150757,459.236359 
	C465.247803,464.771271 464.845703,471.182861 465.294312,477.071899 
	C465.824493,484.031372 472.110077,487.366913 478.122162,484.281708 
	C486.122528,480.176117 493.946106,475.640320 501.439697,470.676544 
	C504.309296,468.775665 506.166718,468.273926 508.852905,470.330688 
	C511.155701,472.093781 513.675293,473.573761 516.538269,475.469879 
	C500.951385,484.872498 488.108002,497.490448 471.467102,504.033356 
	C463.556091,507.143860 455.298096,509.371765 446.737762,511.999695 
z"/>
<path fill="#E4D3B9" opacity="1.000000" stroke="none" 
	d="
M2113.308838,479.277954 
	C2118.225098,476.094360 2122.962158,473.307220 2127.413330,470.120209 
	C2130.302490,468.051636 2132.671875,467.698792 2135.519775,470.080231 
	C2137.573975,471.797852 2139.991211,473.081635 2142.821045,474.935455 
	C2129.879883,483.644409 2118.143066,492.966309 2105.120605,499.858521 
	C2094.604492,505.424133 2082.793945,509.704224 2071.085938,511.531067 
	C2059.449707,513.346741 2047.583496,505.642548 2044.925171,491.569183 
	C2042.279419,477.561646 2045.944946,464.290558 2049.562256,451.225555 
	C2055.481689,429.846527 2062.453613,408.756256 2069.130127,387.591095 
	C2071.887695,378.849457 2074.862061,370.165161 2078.129150,361.604218 
	C2078.831299,359.764435 2081.052002,357.558899 2082.866699,357.250763 
	C2091.221436,355.832092 2099.689941,355.096436 2108.098877,353.977264 
	C2114.862305,353.077148 2121.599365,351.978516 2129.827393,350.746490 
	C2128.478760,356.124725 2127.600098,360.957214 2126.055420,365.566620 
	C2118.278809,388.773804 2110.398193,411.946991 2102.406006,435.080902 
	C2098.902344,445.222382 2094.593262,455.106995 2091.530029,465.370880 
	C2089.864502,470.951263 2090.092285,477.107971 2094.060059,482.208893 
	C2096.123047,484.860931 2098.682129,486.661865 2102.238037,484.941620 
	C2105.857910,483.190552 2109.420654,481.321960 2113.308838,479.277954 
z"/>
<path fill="#E4D3B9" opacity="1.000000" stroke="none" 
	d="
M2129.632812,301.855225 
	C2120.158447,298.847137 2112.856201,293.990814 2108.460938,285.083344 
	C2102.940186,273.895477 2107.473389,257.237579 2118.067383,249.151169 
	C2133.086182,237.687378 2155.323730,247.239883 2160.981689,261.339417 
	C2168.103027,279.085388 2158.121338,303.040863 2135.050293,302.008820 
	C2133.388184,301.934448 2131.720215,301.985657 2129.632812,301.855225 
z"/>
<path fill="#E4D3B9" opacity="1.000000" stroke="none" 
	d="
M495.151306,299.022278 
	C488.432068,294.692749 483.188293,289.662262 480.889740,281.942139 
	C475.811554,264.886078 488.557770,246.537460 504.231201,244.805298 
	C521.666748,242.878372 541.259583,258.698242 536.328064,279.762299 
	C533.225464,293.014587 524.562378,301.788361 511.337799,302.718903 
	C506.179626,303.081848 500.805817,300.380493 495.151306,299.022278 
z"/>
<path fill="#E4D3B9" opacity="1.000000" stroke="none" 
	d="
M1005.898865,259.466614 
	C1009.997559,269.404907 1010.580139,278.977112 1005.833740,288.481567 
	C999.320312,301.524353 987.946594,305.034760 976.046631,302.696472 
	C964.875366,300.501373 956.273560,293.938477 952.902039,282.016846 
	C950.138916,272.246643 954.245850,256.777740 962.090515,251.402618 
	C974.087585,243.182373 983.444946,242.338257 995.372925,250.044525 
	C999.192017,252.511871 1002.313965,256.058258 1005.898865,259.466614 
z"/>
<path fill="#E4D3B9" opacity="1.000000" stroke="none" 
	d="
M1858.821045,278.413391 
	C1856.247192,289.363220 1850.653076,297.262085 1839.755859,300.015839 
	C1827.553711,303.099365 1817.519165,300.613556 1808.279663,290.664642 
	C1800.942871,282.764618 1800.096558,270.153473 1804.888794,260.169647 
	C1809.761108,250.018875 1817.653564,243.926514 1828.541382,243.250122 
	C1836.742920,242.740631 1844.190308,246.534958 1850.547852,252.025513 
	C1858.637451,259.011780 1859.706665,268.188080 1858.821045,278.413391 
z"/>
<path fill="#000000" opacity="1.000000" stroke="none" 
	d="
M70.735016,327.678802 
	C81.377327,310.674133 91.369713,293.687286 102.367455,277.378387 
	C110.425888,265.428284 119.257294,253.889694 128.746414,243.044632 
	C138.419571,231.989212 149.317902,222.005768 159.679825,211.552994 
	C160.226288,211.905701 160.772766,212.258392 161.319229,212.611099 
	C159.438751,221.644348 158.082230,230.825439 155.582855,239.684082 
	C146.920975,270.384613 136.437637,300.495758 123.584175,329.687164 
	C112.860512,354.041656 101.833229,378.303619 89.796280,402.026001 
	C79.642319,422.037445 68.254303,441.512085 53.594177,458.706879 
	C46.935722,466.516510 39.660007,473.832825 32.264145,480.957520 
	C30.434113,482.720459 26.590153,484.183838 24.473124,483.455658 
	C20.924866,482.235199 20.118345,478.242584 19.968494,474.424774 
	C19.016880,450.179993 25.640602,427.437744 34.480202,405.358093 
	C42.356228,385.685211 51.292877,366.429016 60.069771,347.129150 
	C63.070908,340.529816 67.007118,334.355682 70.735016,327.678802 
z"/>
<path fill="#000000" opacity="1.000000" stroke="none" 
	d="
M677.535461,299.805359 
	C676.324768,300.332520 675.453430,300.694458 673.117310,301.664886 
	C677.817444,286.352692 681.905273,272.056061 686.599609,257.961456 
	C694.525391,234.164764 702.598328,210.411224 711.046326,186.795837 
	C720.578247,160.150406 730.066956,133.467178 740.578125,107.202034 
	C747.873169,88.973053 756.454468,71.217155 765.267517,53.654552 
	C769.804688,44.612743 775.990540,36.378311 781.692688,27.955927 
	C783.005676,26.016640 785.222107,24.501364 787.322754,23.328003 
	C790.303833,21.662893 793.897461,23.725327 793.884338,27.483412 
	C793.843994,39.067490 793.892639,50.698544 792.864685,62.218365 
	C791.976624,72.170395 790.262268,82.144997 787.837952,91.840767 
	C784.329956,105.870407 780.845154,120.049164 775.557922,133.457504 
	C767.359741,154.248367 758.415833,174.827698 748.389893,194.794632 
	C735.638733,220.188934 720.859802,244.487930 703.364929,267.004822 
	C694.895996,277.904816 686.373230,288.763031 677.535461,299.805359 
z"/>
<path fill="#000000" opacity="1.000000" stroke="none" 
	d="
M887.259460,244.237793 
	C874.423096,262.696655 862.722656,281.553558 847.056091,297.408051 
	C845.898438,298.579590 844.390686,299.405273 843.045654,300.391754 
	C842.560425,300.094849 842.075256,299.797974 841.590027,299.501099 
	C847.446838,280.839722 853.073730,262.102234 859.221130,243.537094 
	C866.246948,222.318802 873.364075,201.116409 881.115234,180.156235 
	C891.310913,152.586060 902.116516,125.240616 912.748657,97.832970 
	C921.236023,75.954201 931.565369,54.964928 944.079163,35.107586 
	C946.585693,31.129995 949.950256,27.598869 953.372559,24.337523 
	C954.799988,22.977081 957.916870,21.795794 959.346191,22.473152 
	C960.814941,23.169226 961.712280,26.178505 961.915833,28.267460 
	C964.209045,51.800381 960.795471,74.832840 954.916443,97.512688 
	C949.052551,120.134148 940.766602,141.922928 931.357117,163.325439 
	C918.991760,191.451111 904.289124,218.262894 887.259460,244.237793 
z"/>
<path fill="#000000" opacity="1.000000" stroke="none" 
	d="
M2000.970947,280.954407 
	C2006.108276,264.781586 2011.005737,248.949692 2016.373657,233.278915 
	C2025.434082,206.828888 2034.433472,180.348129 2044.136963,154.131378 
	C2052.116211,132.573456 2060.946777,111.325401 2069.645020,90.040176 
	C2078.203369,69.096733 2087.982422,48.748528 2101.035645,30.157434 
	C2103.007324,27.349157 2105.457764,24.764795 2108.110352,22.594702 
	C2109.419922,21.523405 2112.095947,20.802792 2113.422119,21.441725 
	C2114.754395,22.083399 2115.597656,24.533728 2115.930908,26.326130 
	C2118.185547,38.450775 2116.179443,50.480953 2115.071289,62.565079 
	C2112.096680,95.007004 2101.317383,125.239883 2088.473145,154.724991 
	C2079.926025,174.345657 2070.804688,193.896240 2059.892334,212.261322 
	C2045.970459,235.691177 2030.164185,258.017303 2014.779785,280.552673 
	C2009.927124,287.660889 2003.819946,293.912659 1998.286743,300.556366 
	C1997.535767,300.176086 1996.784790,299.795837 1996.033691,299.415558 
	C1997.670044,293.399628 1999.306396,287.383698 2000.970947,280.954407 
z"/>
<path fill="#000000" opacity="1.000000" stroke="none" 
	d="
M1134.743652,367.020874 
	C1141.207031,370.054077 1147.678223,372.479034 1150.057129,379.891113 
	C1152.637573,387.931885 1150.108276,394.971100 1145.893921,401.520325 
	C1134.668457,418.965118 1119.209839,431.932190 1101.223511,441.819000 
	C1093.530273,446.047760 1085.132446,448.999603 1077.026978,452.466553 
	C1076.008667,452.902100 1074.819946,452.939117 1072.994385,453.303833 
	C1073.124634,451.334686 1072.917114,449.683563 1073.376831,448.245636 
	C1079.759644,428.275330 1089.736328,410.214386 1102.091919,393.314453 
	C1109.535400,383.133423 1118.367676,374.683014 1129.243408,368.385284 
	C1130.714844,367.533264 1132.628784,367.445374 1134.743652,367.020874 
z"/>
</svg>